<svg width="27" height="35" viewBox="0 0 27 35" fill="none" xmlns="http://www.w3.org/2000/svg">
<path d="M15.7665 1.15557L15.7665 1.15556C15.4192 0.979915 15.0493 0.858126 14.6715 0.73373C14.5067 0.67949 14.3405 0.624755 14.1739 0.564844H13.2605C12.589 0.718629 11.9512 0.908729 11.3979 1.31359L11.3979 1.3136C10.7455 1.79076 10.3091 2.42911 9.97809 3.16657C9.70275 3.7804 9.21759 4.21613 8.54239 4.30658L8.54235 4.30658C8.09633 4.36617 7.62383 4.2879 7.19292 4.20909L7.19285 4.20908C5.59114 3.91494 4.25283 4.37049 3.24861 5.6268L3.24857 5.62685C2.26625 6.85434 2.05303 8.26689 2.74135 9.67959C3.0933 10.4014 3.21193 11.0174 3.07857 11.574C2.94518 12.1308 2.56449 12.6081 1.96129 13.063C0.614778 14.0788 0.180249 16.1122 0.891559 17.6547C1.48534 18.9417 2.47716 19.7116 3.86141 19.9765C4.74984 20.1463 5.29569 20.6496 5.55129 21.2952C5.80485 21.9356 5.76915 22.7057 5.52103 23.413L5.52102 23.413C5.13943 24.5002 4.63947 25.5486 4.14218 26.5914C3.92558 27.0456 3.70948 27.4988 3.50389 27.9536C3.40617 28.17 3.30835 28.3863 3.21054 28.6026C2.93528 29.2113 2.66016 29.8196 2.38775 30.429L2.38771 30.429C2.30071 30.6231 2.26833 30.808 2.28922 30.9816C2.31005 31.1546 2.38462 31.3231 2.5222 31.484L2.52224 31.4841C2.79211 31.8001 3.14331 31.8693 3.55127 31.7691C3.66154 31.7418 3.76879 31.7105 3.87832 31.6786C3.93948 31.6608 4.00134 31.6428 4.06485 31.6251L4.06497 31.6251C4.63998 31.466 5.21534 31.3072 5.79249 31.1479C6.22854 31.0275 6.66562 30.9068 7.10435 30.7856L7.18269 30.7639L7.2199 30.8362C7.24266 30.8804 7.26477 30.9227 7.28623 30.9638C7.33183 31.0512 7.37451 31.133 7.41442 31.2151L7.41447 31.2152C7.6203 31.64 7.82534 32.0649 8.03033 32.4897C8.29651 33.0412 8.5626 33.5925 8.83021 34.1434L8.83024 34.1435C8.92581 34.3406 9.04882 34.4927 9.19825 34.5945C9.34684 34.6957 9.52677 34.7509 9.7435 34.7467C10.1542 34.7383 10.4394 34.516 10.6201 34.135C10.6625 34.0452 10.7033 33.9544 10.7445 33.8626L10.7446 33.8624C11.0717 33.1388 11.3987 32.415 11.7257 31.6911C12.2775 30.4696 12.8294 29.248 13.3819 28.0268L13.473 28.068L13.3819 28.0268C13.4162 27.951 13.4572 27.875 13.5016 27.7925C13.5263 27.7466 13.5521 27.6987 13.5785 27.6478L13.6688 27.473L13.7568 27.649C13.7756 27.6867 13.7932 27.7217 13.8097 27.7546C13.8634 27.8617 13.9058 27.9464 13.9467 28.0314M15.7665 1.15557L13.8566 28.0748M15.7665 1.15557C16.4371 1.49452 16.9047 2.06818 17.2599 2.74957L17.2599 2.74971M15.7665 1.15557L17.2599 2.74971M13.9467 28.0314L13.8566 28.0748M13.9467 28.0314C13.9467 28.0314 13.9467 28.0314 13.9467 28.0314L13.8566 28.0748M13.9467 28.0314C14.2392 28.6388 14.532 29.246 14.8248 29.8533C15.4979 31.2493 16.1711 32.6456 16.8406 34.0438M13.8566 28.0748C14.1491 28.6823 14.442 29.2896 14.7348 29.8969C15.4079 31.2929 16.081 32.6889 16.7504 34.087M16.8406 34.0438L16.7504 34.087M16.8406 34.0438C16.9442 34.2599 17.0671 34.4367 17.2203 34.5586C17.3715 34.6788 17.5568 34.7493 17.7949 34.7467C18.033 34.744 18.218 34.6711 18.3674 34.5492C18.5187 34.4258 18.6384 34.2478 18.736 34.0279L18.7361 34.0278C19.077 33.2619 19.4251 32.499 19.773 31.7364C19.875 31.5127 19.977 31.2891 20.0788 31.0655M16.8406 34.0438C16.8406 34.0438 16.8406 34.0438 16.8406 34.0438L16.7504 34.087M16.7504 34.087L20.0788 31.0655M20.0788 31.0655C20.0788 31.0655 20.0788 31.0656 20.0788 31.0656L20.17 31.1065M20.0788 31.0655L18.8274 34.0685C19.1682 33.303 19.516 32.5406 19.8639 31.778C19.966 31.5542 20.0681 31.3304 20.17 31.1065M20.0788 31.0655C20.0789 31.0653 20.0789 31.0652 20.079 31.0651L20.17 31.1065M20.0788 31.0655C20.1119 30.9918 20.1512 30.9188 20.1871 30.8524C20.2005 30.8275 20.2134 30.8036 20.2253 30.7809L20.2589 30.7167L20.3303 30.7286C20.3542 30.7326 20.3731 30.7353 20.3904 30.7378C20.396 30.7386 20.4014 30.7394 20.4067 30.7402C20.4275 30.7433 20.4484 30.7466 20.4699 30.7523M20.17 31.1065C20.2014 31.0365 20.2381 30.9685 20.2733 30.9031C20.2872 30.8774 20.3008 30.8521 20.3139 30.8273L20.4451 30.8491M13.6673 27.6937L13.7562 27.7396C13.7445 27.7621 13.7333 27.7835 13.7225 27.8039C13.7218 27.8025 13.7212 27.8012 13.7205 27.7999C13.704 27.7669 13.6864 27.7318 13.6673 27.6937ZM13.6673 27.6937L13.5779 27.7384C13.589 27.7607 13.5997 27.782 13.6099 27.8024C13.6282 27.7683 13.6473 27.7323 13.6673 27.6937ZM20.4699 30.7523C20.4701 30.7523 20.4703 30.7524 20.4705 30.7524L20.4451 30.8491M20.4699 30.7523C20.4697 30.7522 20.4696 30.7522 20.4694 30.7521L20.4451 30.8491M20.4699 30.7523C20.8407 30.845 21.2108 30.9389 21.5806 31.0327C22.3693 31.2328 23.1569 31.4326 23.9483 31.6208M20.4451 30.8491C20.8153 30.9418 21.1853 31.0356 21.5552 31.1294C22.3442 31.3296 23.1332 31.5297 23.9253 31.7181M23.9483 31.6208L23.9253 31.7181M23.9483 31.6208C24.5573 31.7649 25.0955 31.3953 25.1353 30.8162L25.1353 30.816C25.152 30.5805 25.0634 30.3077 24.9496 30.0685L25.0399 30.0256M23.9483 31.6208C23.9483 31.6208 23.9484 31.6208 23.9484 31.6208L23.9253 31.7181M23.9253 31.7181L25.0399 30.0256M25.0399 30.0256L24.9496 30.0685C24.2277 28.5511 23.4978 27.0379 22.7679 25.5245C22.4637 24.8938 22.1594 24.263 21.8557 23.6319M25.0399 30.0256L21.8557 23.6319M17.2599 2.74971C17.2859 2.79942 17.312 2.85031 17.3384 2.90188C17.4902 3.19863 17.6535 3.51772 17.8878 3.76255C18.4548 4.3562 19.1812 4.4953 19.9633 4.28207C21.0962 3.97355 22.1643 4.10661 23.1783 4.71144L23.1784 4.71145M17.2599 2.74971L23.1784 4.71145M23.1784 4.71145C24.8502 5.70799 25.5375 7.95652 24.7079 9.72295C24.6927 9.75537 24.6772 9.7881 24.6616 9.82111C24.5201 10.1198 24.3675 10.4418 24.3104 10.7757L24.3104 10.7759M23.1784 4.71145L24.3104 10.7759M24.3104 10.7759C24.176 11.5677 24.4562 12.2435 25.097 12.7329L25.097 12.7329M24.3104 10.7759L25.097 12.7329M25.097 12.7329C25.7203 13.2087 26.2253 13.7611 26.5541 14.4768C27.5483 16.6415 26.2211 19.3708 23.9036 19.9057L23.9035 19.9058M25.097 12.7329L23.9035 19.9058M23.9035 19.9058C23.7186 19.9486 23.5325 19.9918 23.347 20.0392M23.9035 19.9058L21.7856 21.8664M21.7856 21.8664L21.7856 21.8664C21.8634 20.9574 22.4638 20.2649 23.347 20.0392M21.7856 21.8664C21.7476 22.3138 21.7256 22.7637 21.7205 23.2128M21.7856 21.8664L21.8557 23.6319M23.347 20.0392L23.3717 20.1361M23.347 20.0392C23.347 20.0392 23.347 20.0392 23.3469 20.0392L23.3717 20.1361M23.3717 20.1361C22.5288 20.3515 21.9593 21.0093 21.8853 21.8749L23.9261 20.0032C23.741 20.0461 23.556 20.089 23.3717 20.1361ZM21.8557 23.6319L21.8555 23.6314C21.8501 23.62 21.8443 23.608 21.8384 23.5957C21.8152 23.5477 21.7891 23.4936 21.7682 23.4397C21.7416 23.3713 21.7194 23.2935 21.7205 23.2128M21.7205 23.2128L21.8205 23.2142L21.7205 23.213C21.7205 23.2129 21.7205 23.2129 21.7205 23.2128ZM7.57695 22.2509V22.2496C7.60494 20.145 6.34213 18.5646 4.3715 18.1349L4.37147 18.1349C3.81974 18.0145 3.39126 17.8211 3.08095 17.5351C2.76901 17.2475 2.58434 16.8737 2.50818 16.4079C2.43645 15.9705 2.48244 15.5789 2.63802 15.2319C2.79333 14.8854 3.05487 14.5898 3.40401 14.3388L7.57695 22.2509ZM7.57695 22.2509C7.57695 22.2557 7.57688 22.2649 7.57678 22.2775C7.5764 22.3261 7.57561 22.426 7.57696 22.524L7.57697 22.5246M7.57695 22.2509L7.57697 22.5246M7.57697 22.5246C7.6035 23.9212 9.05089 24.905 10.3539 24.3838L7.57697 22.5246ZM16.5413 24.0694L16.5413 24.0694C15.987 23.6122 15.4175 23.2235 14.7249 23.0565C13.4158 22.7407 12.2426 23.0035 11.1846 23.8378C11.1845 23.8378 11.1845 23.8378 11.1845 23.8378L16.5413 24.0694ZM16.5413 24.0694C17.1968 24.6099 17.9472 24.6693 18.6923 24.3121M16.5413 24.0694L18.6923 24.3121M19.8612 22.0529V22.053C19.8608 22.1118 19.8617 22.1758 19.8627 22.241L19.8612 22.0529ZM19.8612 22.0529C19.8669 20.7701 20.373 19.7289 21.3623 18.918L21.3624 18.9179M19.8612 22.0529L21.3624 18.9179M21.3624 18.9179C21.9122 18.4668 22.5585 18.231 23.2629 18.0881C24.505 17.8372 25.2184 16.6929 24.895 15.5008L24.8949 15.5008M21.3624 18.9179L24.8949 15.5008M24.8949 15.5008C24.7465 14.9543 24.3737 14.5924 23.9581 14.2765C22.8551 13.4365 22.3274 12.3138 22.3546 10.93C22.3676 10.2558 22.6036 9.64093 22.9133 9.02826C23.1351 8.58987 23.2059 8.1493 23.1295 7.73075C23.0531 7.31249 22.8311 6.92398 22.4804 6.58671L22.4803 6.58667M24.8949 15.5008L22.4803 6.58667M22.4803 6.58667C21.833 5.96521 21.0814 5.9537 20.2924 6.1634C19.2784 6.43229 18.3054 6.2896 17.3843 5.78052L17.3843 5.78051M22.4803 6.58667L17.3843 5.78051M17.3843 5.78051C16.5079 5.29654 15.9565 4.53835 15.5479 3.6249C15.2068 2.86174 14.5513 2.49926 13.737 2.49399C13.3245 2.49137 12.9571 2.58213 12.6439 2.77103C12.3305 2.95998 12.077 3.2437 11.8873 3.61797L11.8872 3.61804M17.3843 5.78051L11.8872 3.61804M11.8872 3.61804C11.8508 3.69003 11.8176 3.76296 11.7854 3.83399L11.7812 3.84323C11.7502 3.91159 11.72 3.97811 11.6875 4.0435C11.1909 5.04006 10.4237 5.7241 9.36829 6.08467C8.54749 6.36508 7.72709 6.32488 6.88309 6.11015C5.66171 5.79866 4.53869 6.53688 4.31046 7.76524M11.8872 3.61804L4.63939 9.27255M4.63939 9.27255L4.63937 9.27251C4.40488 8.81284 4.20641 8.32501 4.31046 7.76524M4.63939 9.27255C5.20455 10.3791 5.24002 11.5085 4.76478 12.6555M4.63939 9.27255L4.76478 12.6555M4.31046 7.76524L4.40856 7.78348L4.31046 7.76525C4.31046 7.76525 4.31046 7.76525 4.31046 7.76524ZM20.096 28.582L20.0717 28.679C20.12 28.6911 20.1681 28.7036 20.2168 28.7162C20.2653 28.7288 20.3143 28.7416 20.3636 28.7539L20.3638 28.7539C20.6708 28.8302 20.9785 28.9063 21.2947 28.9845C21.5991 29.0598 21.9115 29.1371 22.2389 29.2183L22.4453 29.2695L22.3531 29.0779C22.1336 28.6217 21.9184 28.1746 21.7053 27.7318C21.3433 26.9799 20.9875 26.2406 20.6269 25.4909L20.5751 25.3832L20.4782 25.4532C19.5357 26.1347 18.6171 26.4619 17.7085 26.4369C16.7999 26.4119 15.8877 26.0343 14.9585 25.2808L14.8055 25.4019C15.2988 26.4235 15.7812 27.4233 16.2621 28.4199C16.7304 29.3905 17.1973 30.3581 17.6715 31.3401L17.7644 31.5325L17.8526 31.338C17.9593 31.1029 18.0616 30.8755 18.1615 30.6535C18.3749 30.1792 18.5772 29.7297 18.7867 29.2832C18.9238 28.9913 19.0954 28.8074 19.3002 28.7118C19.5053 28.616 19.7584 28.6019 20.0721 28.6791L20.096 28.582ZM20.096 28.582C19.4398 28.4205 18.9839 28.6283 18.6962 29.2407L14.9856 25.315C15.0153 25.3764 15.0449 25.4378 15.0745 25.4992C16.8683 26.8651 18.6336 26.8719 20.4541 25.5932C20.4517 25.588 20.4492 25.5828 20.4467 25.5776L20.5368 25.5343L20.5954 25.6153C20.5905 25.6188 20.5857 25.6223 20.5808 25.6258C20.9261 26.3437 21.2675 27.0531 21.6145 27.7739C21.8096 28.1792 22.0064 28.5881 22.2067 29.0043C22.2334 29.0109 22.2602 29.0175 22.2871 29.0242L22.263 29.1213L22.1729 29.1646C22.1609 29.1397 22.1489 29.1148 22.137 29.09C21.855 29.0201 21.584 28.9531 21.319 28.8875C21.0029 28.8093 20.6953 28.7332 20.3879 28.6569C20.3391 28.6447 20.2905 28.6321 20.2419 28.6194C20.1933 28.6068 20.1448 28.5942 20.096 28.582ZM18.6923 24.3121C19.4371 23.9555 19.8513 23.3381 19.8637 22.4907L18.6923 24.3121ZM4.76478 12.6555C4.47821 13.3465 4.01391 13.9001 3.40403 14.3388L4.76478 12.6555ZM6.89918 25.3877L6.799 25.3107L6.74708 25.4259C6.25575 26.5158 5.77519 27.5811 5.27625 28.6871L5.04697 29.1954L4.95922 29.3899L5.16486 29.3329C5.41231 29.2642 5.65099 29.1977 5.88379 29.1328C6.37324 28.9964 6.8367 28.8673 7.30112 28.7408C7.63467 28.6501 7.89273 28.6571 8.10109 28.7515C8.30951 28.8459 8.48565 29.0356 8.63874 29.3471L8.72848 29.303L8.63874 29.3471C8.81382 29.7032 8.98554 30.0604 9.15749 30.418C9.25145 30.6134 9.34548 30.809 9.44016 31.0046L9.44024 31.0047C9.47237 31.0708 9.50743 31.1363 9.55139 31.2185C9.56979 31.2529 9.58976 31.2902 9.61172 31.3317L9.70715 31.5119L9.79121 31.3261C10.6619 29.4014 11.4998 27.5481 12.3654 25.6326L12.5149 25.3017L12.2171 25.5094C11.2879 26.1574 10.3928 26.4573 9.51738 26.433C8.6418 26.4087 7.7737 26.0597 6.89918 25.3877Z" fill="#0064AD" stroke="#CFE7F8" stroke-width="0.2"/>
<path d="M13.7402 6.14665L13.7408 6.04665L13.7402 6.14665C18.0414 6.1724 21.5506 9.69568 21.5357 13.9715C21.5199 18.2658 17.9984 21.781 13.719 21.776C9.43173 21.771 5.91462 18.2548 5.90714 13.9666C5.89967 9.67529 9.46024 6.12091 13.7402 6.14665ZM19.6107 13.9566C19.6056 10.6989 16.9826 8.07671 13.7257 8.07243C10.4611 8.06815 7.81581 10.721 7.83292 13.9825C7.85004 17.2391 10.4865 19.8614 13.7352 19.8511C16.9885 19.8408 19.6159 17.206 19.6107 13.9566Z" fill="#0064AD" stroke="#CFE7F8" stroke-width="0.2"/>
<path d="M12.7953 14.1579L12.8538 14.2411L12.936 14.1811C13.2169 13.9759 13.4953 13.7729 13.7719 13.5712C14.4508 13.076 15.1185 12.5891 15.7839 12.0988L15.7839 12.0988C16.0641 11.8923 16.3481 11.7915 16.6743 11.8675C17.3889 12.0356 17.6505 12.9184 17.1419 13.4544L17.1418 13.4545C17.0721 13.528 16.9889 13.5914 16.8986 13.658C16.7544 13.7635 16.6101 13.869 16.4659 13.9744C15.4274 14.7338 14.3888 15.4933 13.3482 16.2495L13.3482 16.2496C13.0144 16.4923 12.7264 16.5791 12.4732 16.5382C12.2202 16.4974 11.9765 16.3247 11.7405 15.9917L11.7405 15.9916C11.719 15.9612 11.6974 15.9308 11.6758 15.9003C11.3675 15.4654 11.0595 15.031 10.7589 14.5923L10.7589 14.5923C10.576 14.3255 10.5083 14.0526 10.5394 13.8102C10.5703 13.5689 10.7001 13.3491 10.9293 13.1868C11.161 13.023 11.4129 12.9723 11.6513 13.0214C11.8905 13.0707 12.1248 13.2227 12.3145 13.48L12.3145 13.48L12.3148 13.4804C12.4304 13.6354 12.5406 13.7935 12.6587 13.9628C12.7029 14.0261 12.7482 14.091 12.7953 14.1579Z" fill="#0064AD" stroke="#CFE7F8" stroke-width="0.2"/>
</svg>
