<svg width="36" height="31" viewBox="0 0 36 31" fill="none" xmlns="http://www.w3.org/2000/svg">
<path d="M4.28944 12.7606C4.28944 12.886 4.28944 12.9983 4.28944 13.1097C4.28944 16.729 4.29131 20.3484 4.2857 23.9678C4.2857 24.1998 4.3353 24.3271 4.5711 24.4366C6.03176 25.1122 6.73355 26.7656 6.23013 28.2805C5.73513 29.7702 4.20242 30.6722 2.66597 30.3793C1.08553 30.078 -0.0223665 28.6791 0.0983417 27.0734C0.190042 25.8458 0.825402 24.954 1.93891 24.4216C2.12044 24.3346 2.19342 24.2457 2.19342 24.038C2.18687 19.975 2.18688 15.9112 2.19436 11.8483C2.19436 11.6378 2.1167 11.5386 1.94172 11.4478C1.34379 11.139 0.753352 10.8153 0.11519 10.4728C0.251805 10.3886 0.343504 10.3259 0.440819 10.2735C6.20674 7.1856 11.9736 4.09959 17.7395 1.01171C17.9033 0.923748 18.038 0.854504 18.2486 0.967726C24.0818 4.10239 29.9207 7.22677 35.7587 10.353C35.7999 10.3745 35.8364 10.4035 35.9253 10.4606C35.798 10.5364 35.6988 10.6019 35.594 10.6571C33.2304 11.9241 30.8686 13.1939 28.4994 14.4496C28.2626 14.575 28.199 14.6957 28.2439 14.9568C28.5967 17.0023 28.9261 19.0524 29.2835 21.097C29.3462 21.4544 29.2891 21.6902 29.0009 21.9391C25.3535 25.0925 21.1596 26.6196 16.3247 26.1377C12.7166 25.7775 9.57628 24.3243 6.90105 21.868C6.6849 21.6696 6.63342 21.4788 6.68208 21.1971C7.04514 19.0824 7.39136 16.9648 7.75068 14.8492C7.77969 14.6807 7.78249 14.5713 7.60751 14.4796C6.54453 13.9209 5.48717 13.3511 4.42793 12.7868C4.39986 12.7728 4.36243 12.7747 4.28944 12.7606ZM4.55893 10.4606C4.71894 10.5533 4.80784 10.6075 4.90047 10.6571C9.16643 12.9403 13.4343 15.2216 17.6965 17.5122C17.9398 17.6432 18.1185 17.6414 18.3618 17.5113C22.6333 15.2132 26.9105 12.9253 31.1858 10.6347C31.2729 10.5879 31.3543 10.5317 31.4694 10.4606C31.3636 10.3989 31.2972 10.3568 31.2279 10.3193C26.9115 8.00716 22.5931 5.69593 18.2794 3.37721C18.0904 3.27522 17.9538 3.28177 17.7704 3.38095C13.8974 5.46013 10.0217 7.53369 6.14591 9.60818C5.63501 9.88048 5.12598 10.1556 4.55893 10.4606ZM9.76996 15.6455C9.74002 15.7549 9.7157 15.8204 9.70447 15.8887C9.46305 17.3382 9.25158 18.7932 8.96712 20.2352C8.87074 20.7255 9.02888 20.9716 9.39381 21.2383C11.6405 22.8861 14.1389 23.8667 16.9198 24.0716C20.6038 24.3439 23.9041 23.3277 26.8226 21.0577C27.0425 20.8864 27.0893 20.7189 27.0434 20.4635C26.874 19.5109 26.7215 18.5546 26.5606 17.6002C26.4548 16.9723 26.3453 16.3454 26.2331 15.6866C26.0955 15.7549 26.0019 15.798 25.9112 15.8466C23.3828 17.2006 20.8517 18.5509 18.329 19.9142C18.1054 20.0349 17.9444 20.0312 17.7264 19.9114C16.6326 19.3107 15.5293 18.7287 14.4299 18.1401C12.8878 17.3148 11.3467 16.4895 9.76996 15.6455ZM4.28851 27.2718C4.28196 26.7048 3.801 26.2313 3.23488 26.2341C2.66971 26.2369 2.19156 26.7141 2.18875 27.2802C2.18595 27.8622 2.6772 28.3451 3.26015 28.3329C3.82907 28.3217 4.29599 27.8398 4.28851 27.2718Z" fill="#A993CC"/>
<path d="M19.0674 9.43591C19.0674 10.1321 19.0674 10.7955 19.0674 11.487C18.3834 11.487 17.7031 11.487 16.9976 11.487C16.9976 10.818 16.9976 10.1377 16.9976 9.43591C17.676 9.43591 18.3562 9.43591 19.0674 9.43591Z" fill="#A993CC"/>
</svg>
