<svg width="29" height="33" viewBox="0 0 29 33" fill="none" xmlns="http://www.w3.org/2000/svg">
<path d="M16.0569 16.7818L16.0569 16.7818C18.8491 17.1893 21.1614 18.486 22.9972 20.6141C24.3813 22.2183 25.2351 24.0823 25.5481 26.1814C25.6212 26.6709 25.6608 27.1677 25.6783 27.6612C25.7038 28.3825 25.4927 28.9845 25.0834 29.4067C24.6742 29.8288 24.0774 30.0605 23.3524 30.0617C21.2599 30.0656 19.1677 30.0648 17.0755 30.064C16.2033 30.0636 15.3312 30.0633 14.4589 30.0633C13.615 30.0633 12.7711 30.0631 11.9271 30.063C9.81704 30.0627 7.70673 30.0624 5.59643 30.0641C4.84968 30.0649 4.18123 29.8574 3.68797 29.2356L3.68792 29.2356C3.39382 28.8642 3.22553 28.4391 3.2222 27.9592C3.2222 27.9592 3.2222 27.9592 3.2222 27.9591L3.3222 27.9585C3.30803 26.0127 3.77025 24.1811 4.72226 22.4873L16.0569 16.7818ZM16.0569 16.7818C13.913 16.4697 11.8433 16.7509 9.86881 17.6408C7.60105 18.6631 5.85182 20.2725 4.63509 22.4383L16.0569 16.7818ZM9.03006 15.524L9.03026 15.524C9.15227 15.4693 9.27465 15.4163 9.41002 15.3576C9.47497 15.3294 9.54291 15.3 9.61522 15.2684L9.76577 15.2028L9.63831 15.0992C7.01039 12.9633 5.87723 10.2513 6.46491 6.92133L6.46492 6.92129C6.80683 4.98017 7.81485 3.38057 9.36128 2.14484C12.7539 -0.566336 17.4715 -0.115894 20.3012 2.83439C21.9983 4.60386 22.7675 6.73176 22.5644 9.17608C22.3622 11.618 21.2158 13.5628 19.2616 15.0821L19.1315 15.1832L19.2812 15.2519C19.416 15.3137 19.5467 15.3721 19.6743 15.4291C19.9506 15.5525 20.2122 15.6693 20.4679 15.8004L20.468 15.8005C23.8018 17.5068 26.0788 20.1347 27.2901 23.6733C27.7951 25.1491 28.0376 26.6787 27.9448 28.2384C27.824 30.2688 26.2454 31.9613 24.2283 32.274L24.2276 32.2741C24.1872 32.2807 24.1505 32.2941 24.1204 32.3063C24.1072 32.3117 24.0961 32.3164 24.086 32.3207C24.0752 32.3253 24.0654 32.3295 24.0553 32.3335C17.6785 32.3342 11.3025 32.3342 4.92657 32.3342H4.84932C4.70811 32.2904 4.56324 32.2504 4.4202 32.2109C4.3363 32.1877 4.25302 32.1647 4.17149 32.1412C3.94319 32.0754 3.72199 32.004 3.51338 31.9086C1.8239 31.1346 0.869099 29.4534 0.940124 27.5906C1.02542 25.355 1.56119 23.2574 2.65962 21.3129C4.14521 18.6841 6.2692 16.7532 9.03006 15.524ZM8.57362 8.50828V8.5083L14.4951 14.2688L14.496 14.3688C14.496 14.3688 14.4961 14.3688 14.4961 14.3688C17.7224 14.34 20.3428 11.7002 20.3324 8.48637C20.3228 5.25825 17.6514 2.59549 14.4425 2.61793C11.2005 2.64035 8.56321 5.28629 8.57362 8.50828Z" fill="#C28537" stroke="#CFE7F8" stroke-width="0.2"/>
</svg>
