<svg width="35" height="31" viewBox="0 0 35 31" fill="none" xmlns="http://www.w3.org/2000/svg">
<path d="M0.578125 27.854C0.578125 20.4073 0.578125 12.9598 0.578125 5.51303C0.842252 4.9435 1.29292 4.77347 1.90619 4.77842C4.65145 4.79989 7.3959 4.78833 10.1412 4.78833C10.2675 4.78833 10.3929 4.78833 10.5308 4.78833C10.5308 4.42846 10.5233 4.12058 10.5324 3.81436C10.5811 2.13303 11.7944 0.866871 13.4749 0.845411C16.1203 0.810744 18.7674 0.815696 21.4136 0.843759C22.9885 0.860267 24.1498 1.94319 24.3355 3.50814C24.385 3.92496 24.3429 4.35252 24.3429 4.78833C24.5509 4.78833 24.6814 4.78833 24.8126 4.78833C27.6016 4.78833 30.3906 4.7875 33.1796 4.78916C33.9456 4.78916 34.3203 5.15233 34.3203 5.91334C34.3228 13.0836 34.3269 20.2538 34.3088 27.4232C34.308 27.8804 34.2048 28.3749 34.0108 28.7876C33.4553 29.9695 32.4558 30.4904 31.1681 30.4904C25.184 30.4904 19.1999 30.4904 13.2158 30.4904C10.0537 30.4904 6.89076 30.4887 3.72866 30.4912C2.67546 30.492 1.77 30.1453 1.17406 29.2589C0.893424 28.8453 0.771268 28.3262 0.578125 27.854ZM32.3435 12.0675C32.3245 12.065 32.3064 12.0625 32.2874 12.0609C32.2593 12.141 32.2288 12.2202 32.2024 12.3011C31.7435 13.6737 31.2862 15.0464 30.8273 16.4182C30.3403 17.8742 29.297 18.6269 27.7634 18.6286C26.0944 18.6302 24.4255 18.6286 22.7557 18.6286C22.6402 18.6286 22.5246 18.6286 22.3925 18.6286C22.3925 18.9719 22.3975 19.2674 22.3917 19.5629C22.3793 20.1894 21.9823 20.6021 21.36 20.6029C18.7575 20.6087 16.155 20.6087 13.5525 20.6038C12.9137 20.6021 12.5191 20.1894 12.5092 19.5415C12.5051 19.2476 12.5084 18.9538 12.5084 18.6294C12.359 18.6294 12.241 18.6294 12.1238 18.6294C10.4656 18.6294 8.80733 18.6302 7.14911 18.6294C5.59571 18.6286 4.56231 17.8791 4.0679 16.3984C3.68574 15.2544 3.30523 14.1104 2.92307 12.9664C2.82073 12.661 2.71508 12.3564 2.61108 12.0518C2.59292 12.0559 2.57476 12.0601 2.5566 12.0642C2.5566 12.1715 2.5566 12.278 2.5566 12.3853C2.5566 17.3492 2.5566 22.3123 2.5566 27.2763C2.5566 28.1619 2.90739 28.5144 3.78974 28.5144C12.893 28.5144 21.9972 28.5144 31.1005 28.5144C32.0018 28.5144 32.3443 28.1669 32.3443 27.254C32.3443 22.3016 32.3443 17.3484 32.3443 12.396C32.3435 12.2862 32.3435 12.1765 32.3435 12.0675ZM12.5068 16.6501C12.5068 16.3249 12.5026 16.0311 12.5076 15.7372C12.5175 15.0901 12.9137 14.6774 13.5525 14.6766C16.155 14.6716 18.7575 14.6716 21.36 14.6774C21.9823 14.6791 22.3785 15.0918 22.3909 15.7182C22.3967 16.022 22.3917 16.3249 22.3917 16.6509C22.5394 16.6509 22.6476 16.6509 22.7557 16.6509C24.4032 16.6509 26.0499 16.6509 27.6974 16.6509C28.4567 16.6509 28.7341 16.4495 28.9751 15.7248C29.9317 12.8541 30.8875 9.9842 31.8433 7.11347C31.8788 7.007 31.911 6.89887 31.9448 6.78909C22.2596 6.78909 12.6165 6.78909 2.94784 6.78909C3.13025 7.33633 3.30276 7.8555 3.47526 8.37468C4.29653 10.8393 5.11616 13.3048 5.93908 15.7694C6.14377 16.3818 6.43514 16.6443 6.98485 16.6468C8.80733 16.6559 10.6298 16.6501 12.5068 16.6501ZM12.5068 4.76109C15.7984 4.76109 19.0794 4.76109 22.3909 4.76109C22.3909 4.44084 22.3991 4.12471 22.3892 3.81024C22.3711 3.22833 21.9674 2.83214 21.3814 2.81398C21.1404 2.80655 20.8986 2.81233 20.6575 2.81233C18.3093 2.81233 15.9619 2.81068 13.6136 2.81316C12.9054 2.81398 12.5142 3.2077 12.5076 3.91176C12.5043 4.18496 12.5068 4.459 12.5068 4.76109ZM20.3984 16.6691C18.4249 16.6691 16.4678 16.6691 14.505 16.6691C14.505 17.3278 14.505 17.9674 14.505 18.6038C16.4843 18.6038 18.4414 18.6038 20.3984 18.6038C20.3984 17.9468 20.3984 17.3145 20.3984 16.6691Z" fill="#34BB8D"/>
</svg>
