<svg width="81" height="98" viewBox="0 0 81 98" fill="none" xmlns="http://www.w3.org/2000/svg">
<path d="M30.318 96.855C28.6134 96.484 27.0427 95.8571 25.81 94.5587C24.3097 92.9785 23.6805 91.0838 23.6945 88.9284C23.7157 85.7117 23.6992 82.4928 23.6992 79.2738C23.6992 78.938 23.6992 78.6023 23.6992 78.0998C22.2365 78.0998 20.8724 78.1632 19.5129 78.0881C16.3832 77.912 13.5774 75.402 13.1524 72.3122C12.981 71.0584 13.1242 69.7624 13.1242 68.3865C12.286 68.6565 11.6286 68.9382 10.9407 69.0815C6.04059 70.0958 1.71103 66.696 1.66407 61.6527C1.58894 53.6557 1.58893 45.6563 1.66172 37.6593C1.71337 31.9656 7.17463 28.479 12.4199 30.6813C12.5607 30.74 12.704 30.7964 13.0115 30.9185C12.6429 20.9281 17.2519 13.7669 25.5518 8.63675C24.1947 7.28435 22.8869 5.9883 21.5885 4.68521C21.3044 4.39876 21.0156 4.10292 20.7949 3.76717C20.3206 3.04401 20.4498 2.0391 21.0508 1.44273C21.6448 0.853407 22.5676 0.712533 23.2931 1.15159C23.6359 1.35821 23.9364 1.64465 24.2228 1.92875C25.7325 3.42437 27.2423 4.92 28.7238 6.4391C29.076 6.80068 29.3671 6.89694 29.8625 6.70911C34.0113 5.13835 38.3127 4.56311 42.7315 4.80964C45.7744 4.97869 48.7351 5.55863 51.5807 6.65511C52.2053 6.89459 52.5857 6.7772 53.0388 6.30996C54.5344 4.75799 56.0394 3.21071 57.6266 1.75501C58.1056 1.31595 58.8945 0.926194 59.4932 0.987239C60.0379 1.04124 60.6883 1.64231 60.9842 2.17528C61.3692 2.86792 61.0734 3.63803 60.4981 4.22032C59.2889 5.44123 58.0774 6.6598 56.8542 7.86663C56.6123 8.10612 56.3118 8.28691 55.9573 8.55926C64.3534 13.7646 68.9718 20.8905 68.6125 30.7893C69.6104 30.5404 70.5237 30.1976 71.4629 30.1014C76.1564 29.6177 79.913 32.8484 79.96 37.5678C80.0422 45.6281 80.068 53.6885 79.9506 61.7489C79.8684 67.4074 74.4236 70.772 69.1807 68.5814C69.0399 68.5227 68.8966 68.4734 68.6008 68.363C68.6008 69.1754 68.6055 69.9056 68.6008 70.6334C68.5726 75.1907 65.6541 78.1069 61.0851 78.1374C60.0872 78.1444 59.0894 78.1374 57.9295 78.1374C57.9295 78.553 57.9295 78.9122 57.9295 79.2738C57.9178 82.7722 57.9906 86.2752 57.8661 89.7689C57.7393 93.3237 55.2646 96.0214 51.7521 96.7094C51.6019 96.7399 51.4587 96.8033 51.3108 96.8526C50.6228 96.8526 49.9349 96.8526 49.2493 96.8526C44.4877 95.7867 42.5084 92.3845 42.6962 87.8084C42.816 84.9416 42.7197 82.0678 42.7174 79.1963C42.7174 78.8652 42.6892 78.5365 42.6728 78.2055C41.3767 78.2055 40.1793 78.2055 38.9137 78.2055C38.9137 78.614 38.9137 78.9521 38.9137 79.2925C38.9137 82.4763 38.9137 85.6601 38.9137 88.8415C38.9137 90.9781 38.3197 92.894 36.8406 94.4906C35.6267 95.8007 34.0559 96.4253 32.3772 96.8503C31.6939 96.8549 31.006 96.855 30.318 96.855ZM16.8809 32.6277C16.8551 32.9095 16.8316 33.0316 16.8316 33.156C16.8292 45.7455 16.8222 58.3327 16.8363 70.9222C16.8386 72.9297 18.1676 74.2751 20.175 74.3314C21.7035 74.376 23.2367 74.3408 24.7676 74.3431C26.9323 74.3455 27.5099 74.9113 27.5099 77.0456C27.5123 81.1075 27.4958 85.167 27.517 89.2289C27.5264 91.1753 28.7661 92.6592 30.5505 92.9527C33.105 93.373 35.0326 91.7717 35.0538 89.1327C35.0843 85.0731 35.0585 81.0112 35.0655 76.9493C35.0679 75.0076 35.7253 74.3478 37.6365 74.3431C39.6979 74.3408 41.7594 74.3408 43.8209 74.3431C45.9951 74.3431 46.5821 74.9372 46.5821 77.1372C46.5844 81.1357 46.5703 85.1342 46.5891 89.1327C46.5985 91.0368 47.6151 92.4409 49.2328 92.887C51.7803 93.589 54.1001 91.8797 54.1212 89.2266C54.1517 85.167 54.1282 81.1051 54.1306 77.0433C54.1306 74.9066 54.7035 74.3431 56.873 74.3431C58.2465 74.3431 59.6224 74.3478 60.9959 74.3431C63.5176 74.3338 64.8066 73.0494 64.8066 70.5348C64.8089 56.8207 64.8136 43.1088 64.7948 29.3947C64.7925 28.2747 64.7267 27.1383 64.5248 26.0418C63.4471 20.1603 60.1741 15.7134 55.159 12.6446C47.2465 7.80324 38.8457 7.25617 30.2875 10.6677C24.8521 12.8348 20.6939 16.5633 18.2967 22.0293C17.3622 24.1565 16.8762 26.387 16.8645 28.81C17.3153 28.81 17.6816 28.81 18.0502 28.81C29.2638 28.81 53.6258 28.8077 64.8418 28.8171C65.3043 28.8171 65.788 28.8406 66.227 28.9673C67.1075 29.2233 67.5677 29.9863 67.4902 30.9091C67.4198 31.7637 66.8375 32.4188 65.9664 32.5573C65.5368 32.6254 65.0954 32.6277 64.6586 32.6277C53.5389 32.6324 29.2685 32.6301 18.1488 32.6301C17.7449 32.6277 17.3458 32.6277 16.8809 32.6277ZM13.028 49.6032C13.028 46.7927 13.0327 43.9846 13.0256 41.1742C13.0209 39.8335 13.0961 38.4811 12.9576 37.1522C12.6993 34.6845 10.3866 33.2711 8.01988 34.0388C6.34581 34.5812 5.48413 35.9266 5.48413 38.0632C5.47944 45.7737 5.48178 53.4866 5.48413 61.1972C5.48413 61.601 5.50292 62.0095 5.56162 62.411C5.77997 63.909 7.04785 65.1581 8.53877 65.3741C11.1473 65.7498 13.0068 64.1297 13.0233 61.4085C13.0444 57.471 13.028 53.5359 13.028 49.6032ZM76.1517 49.6619C76.1517 47.8516 76.154 46.0414 76.1517 44.2288C76.1493 41.9818 76.1869 39.7325 76.1259 37.4856C76.0789 35.7599 75.1092 34.5178 73.5995 34.0318C70.9487 33.1819 68.6149 34.971 68.6078 37.9059C68.5914 45.7103 68.6008 53.5148 68.6078 61.3193C68.6078 61.7536 68.6501 62.195 68.7417 62.62C69.0633 64.1015 70.3077 65.2098 71.7986 65.3788C74.3555 65.6676 76.1188 64.1133 76.14 61.4601C76.1752 57.5297 76.1517 53.5946 76.1517 49.6619Z" fill="#C28537" stroke="#FBF5D1" stroke-width="1.3"/>
<path d="M31.6434 25.6592C28.9456 25.6569 26.7597 23.4757 26.7573 20.7826C26.755 18.1107 28.9831 15.8896 31.6574 15.899C34.3434 15.906 36.5387 18.1107 36.5317 20.7991C36.5247 23.5015 34.3528 25.6616 31.6434 25.6592ZM31.6011 19.7566C30.9319 19.82 30.5656 20.2097 30.6056 20.8624C30.6431 21.4659 31.0329 21.8486 31.6527 21.8392C32.3148 21.8298 32.7163 21.4189 32.7069 20.7685C32.6975 20.1111 32.2726 19.7707 31.6011 19.7566Z" fill="#C28537" stroke="#FBF5D1" stroke-width="1.3"/>
<path d="M49.9727 25.6593C47.2609 25.6499 45.1008 23.4851 45.1055 20.7756C45.1078 18.0896 47.3172 15.8872 50.0009 15.899C52.6845 15.9084 54.8916 18.1295 54.8798 20.8038C54.8658 23.4968 52.6728 25.6663 49.9727 25.6593ZM50.0314 19.7566C49.3646 19.7707 48.9396 20.1088 48.9302 20.7685C48.9208 21.4166 49.3247 21.8275 49.9845 21.8392C50.6043 21.8486 50.9917 21.4635 51.0316 20.8601C51.0762 20.2004 50.7052 19.8176 50.0314 19.7566Z" fill="#C28537" stroke="#FBF5D1" stroke-width="1.3"/>
</svg>
